# xmcd
# 
# Track frame offsets:
#     150
#     17610
#     32885
#     50337
#     71272
#     88197
# 
# Disc length: 1428
# 
# Revision: 0
# Processed by: cddbd v1.5.2PL0 Copyright (c) Steve Scherf et al.
# Submitted via: fre:ac v1.0.31
# 
DISCID=44059206
DTITLE=Fast Forward - Fast Forward The New Music Sampler Country/Pop
DYEAR=0
DGENRE=Country
TTITLE0=Evangeline
TTITLE1=What I Do Best
TTITLE2=The Great Unknown
TTITLE3=It'll Be Alright
TTITLE4=Let's Go All The Way
TTITLE5=Sonny and Cher
EXTD=
EXTT0=
EXTT1=
EXTT2=
EXTT3=
EXTT4=
EXTT5=
PLAYORDER=
